<svg width="24" height="24" viewBox="0 0 24 24" fill="none" xmlns="http://www.w3.org/2000/svg">
<path d="M5.25 18.75C5.25 19.7446 5.64509 20.6984 6.34835 21.4017C7.05161 22.1049 8.00544 22.5 9 22.5C9.99456 22.5 10.9484 22.1049 11.6517 21.4017C12.3549 20.6984 12.75 19.7446 12.75 18.75C12.75 17.7554 12.3549 16.8016 11.6517 16.0983C10.9484 15.3951 9.99456 15 9 15C8.00544 15 7.05161 15.3951 6.34835 16.0983C5.64509 16.8016 5.25 17.7554 5.25 18.75Z" stroke="black" stroke-width="1.5" stroke-linecap="round" stroke-linejoin="round"/>
<path d="M12.75 18.75V1.5" stroke="black" stroke-width="1.5" stroke-linecap="round" stroke-linejoin="round"/>
<path d="M12.75 2.86719L16.326 5.05119C18.765 6.93619 19.426 9.56219 18.026 11.8672" stroke="black" stroke-width="1.5" stroke-linecap="round" stroke-linejoin="round"/>
</svg>
