<svg width="100" height="74" viewBox="0 0 100 74" fill="none" xmlns="http://www.w3.org/2000/svg">
<path d="M50.3266 22.1031C50.3266 35.2839 49.6076 63.2631 46.7318 69.7337" stroke="#BEEAAF" stroke-width="7.18951" stroke-linecap="round"/>
<path d="M25.1633 1.4333C40.2613 -4.31831 50.027 8.62281 53.0227 15.8123C53.9213 18.8079 52.8429 25.6979 41.3397 29.2926C29.8365 32.8874 8.98689 30.7904 0 29.2926C2.09694 22.4027 10.0653 7.18491 25.1633 1.4333Z" fill="#BEEAAF"/>
<path d="M74.8367 1.96791C59.7387 -3.7837 49.973 9.15742 46.9773 16.3469C46.0787 19.3426 47.1571 26.2325 58.6603 29.8272C70.1635 33.422 91.0131 31.3251 100 29.8272C97.9031 22.9373 89.9347 7.71952 74.8367 1.96791Z" fill="#BEEAAF"/>
<path d="M50.3306 17.158C56.1021 14.2722 70.6902 10.4111 82.8702 18.0533" stroke="#98D483" stroke-width="3.59476" stroke-linecap="round"/>
<path d="M50.2943 17.2838C44.6106 14.2287 30.1429 9.93848 17.7425 17.2176" stroke="#98D483" stroke-width="3.59476" stroke-linecap="round"/>
</svg>
