<svg viewBox="0 0 70 70" fill="none" xmlns="http://www.w3.org/2000/svg">
<g id="Layer_1" clip-path="url(#clip0_0_4)">
<path id="Vector" d="M0 35C0 13.12 6.25 0 35 0C63.75 0 70 11.56 70 35C70 60 59.38 70 35 70C13.44 70 0 61.88 0 35Z" fill="#F4F5C7"/>
<g id="Group">
<path id="Vector_2" d="M23.99 14.9C28 14.2 31.92 14.9 35.15 16.62L35.68 16.9L36.22 16.64C37.6 15.98 39.1 15.5 40.7 15.22C49.62 13.65 57.99 19.03 59.55 27.01L59.6 27.28C59.99 29.48 59.81 31.67 59.18 33.7L59 34.26L59.34 34.74C60.47 36.34 61.13 38.1 61.19 39.97V40.19C61.2 44.5 58.02 48.28 53.28 50.94C48.53 53.6 42.06 55.26 34.99 55.35C27.92 55.44 21.44 53.96 16.69 51.42C11.95 48.89 8.77 45.2 8.76 40.9C8.76 38.72 9.58 36.66 11.02 34.82L11.4 34.33L11.21 33.73C11.06 33.26 10.94 32.77 10.84 32.28C9.31 24.38 14.97 16.58 23.77 14.93L23.98 14.89L23.99 14.9Z" fill="#B4D16E" stroke="#8FB857" stroke-width="3"/>
<path id="Vector_3" d="M37.3 33.32C37.96 33.32 38.5 34.12 38.5 35.12C38.5 36.12 37.96 36.92 37.3 36.92C36.64 36.92 36.1 36.12 36.1 35.12C36.1 34.12 36.64 33.32 37.3 33.32Z" fill="#163619"/>
<path id="Vector_4" d="M32.51 33.32C33.17 33.32 33.71 34.12 33.71 35.12C33.71 36.12 33.17 36.92 32.51 36.92C31.85 36.92 31.31 36.12 31.31 35.12C31.31 34.12 31.85 33.32 32.51 33.32Z" fill="#163619"/>
<path id="Vector_5" d="M12.49 34C18.38 34 23.16 38.78 23.16 44.67C23.16 48.42 21.23 51.71 18.3 53.62C17.47 53.27 16.67 52.89 15.92 52.49C11.01 49.87 7.37 45.86 7.36 40.92C7.36 38.54 8.22 36.33 9.65 34.39C10.55 34.14 11.51 34.01 12.49 34.01V34Z" fill="#EFBFB9"/>
<path id="Vector_6" d="M57.51 33.64C51.62 33.64 46.84 38.42 46.84 44.31C46.84 48.06 48.77 51.35 51.7 53.26C52.53 52.91 53.33 52.53 54.08 52.13C58.99 49.51 62.63 45.5 62.64 40.56C62.64 38.18 61.78 35.97 60.35 34.03C59.45 33.78 58.49 33.65 57.51 33.65V33.64Z" fill="#EFBFB9"/>
<path id="Vector_7" d="M32.64 38.4C32.64 38.4 34.12 39.27 35.11 39.27C36.1 39.27 37.45 38.4 37.45 38.4" stroke="#163619" stroke-linecap="round" stroke-linejoin="round"/>
</g>
</g>
<defs>
<clipPath id="clip0_0_4">
<rect width="70" height="70" fill="white"/>
</clipPath>
</defs>
</svg>
