<svg width="327" height="39" viewBox="0 0 327 39" fill="none" xmlns="http://www.w3.org/2000/svg">
<rect x="0.5" y="0.5" width="326" height="38" rx="19" fill="white"/>
<rect x="0.5" y="0.5" width="326" height="38" rx="19" stroke="#D7E2DD"/>
<path d="M1 19.5C1 9.28273 9.28273 1 19.5 1H235V38H19.5C9.28273 38 1 29.7173 1 19.5Z" fill="#F1F2AC"/>
<g clip-path="url(#clip0_337_393)">
<path d="M124.25 20.5625C124.25 21.4489 124.425 22.3267 124.764 23.1456C125.103 23.9646 125.6 24.7087 126.227 25.3355C126.854 25.9623 127.598 26.4595 128.417 26.7987C129.236 27.1379 130.114 27.3125 131 27.3125C131.886 27.3125 132.764 27.1379 133.583 26.7987C134.402 26.4595 135.146 25.9623 135.773 25.3355C136.4 24.7087 136.897 23.9646 137.236 23.1456C137.575 22.3267 137.75 21.4489 137.75 20.5625C137.75 19.6761 137.575 18.7983 137.236 17.9794C136.897 17.1604 136.4 16.4163 135.773 15.7895C135.146 15.1627 134.402 14.6655 133.583 14.3263C132.764 13.9871 131.886 13.8125 131 13.8125C130.114 13.8125 129.236 13.9871 128.417 14.3263C127.598 14.6655 126.854 15.1627 126.227 15.7895C125.6 16.4163 125.103 17.1604 124.764 17.9794C124.425 18.7983 124.25 19.6761 124.25 20.5625Z" stroke="black" stroke-width="1.5" stroke-linecap="round" stroke-linejoin="round"/>
<path d="M126.5 28.4376L127.54 26.3594" stroke="black" stroke-width="1.5" stroke-linecap="round" stroke-linejoin="round"/>
<path d="M131 20.5625H128.457" stroke="black" stroke-width="1.5" stroke-linecap="round" stroke-linejoin="round"/>
<path d="M131 16.625V20.5625" stroke="black" stroke-width="1.5" stroke-linecap="round" stroke-linejoin="round"/>
<path d="M123.875 14.75L126.688 12.5" stroke="black" stroke-width="1.5" stroke-linecap="round" stroke-linejoin="round"/>
<path d="M135.5 28.4374L134.46 26.3584" stroke="black" stroke-width="1.5" stroke-linecap="round" stroke-linejoin="round"/>
<path d="M137.938 14.75L135.125 12.5" stroke="black" stroke-width="1.5" stroke-linecap="round" stroke-linejoin="round"/>
</g>
<path d="M153.463 27.2415C152.341 27.2367 151.382 26.9408 150.587 26.3537C149.791 25.7666 149.183 24.9119 148.761 23.7898C148.34 22.6676 148.129 21.3158 148.129 19.7344C148.129 18.1577 148.34 16.8106 148.761 15.6932C149.188 14.5758 149.798 13.7235 150.594 13.1364C151.394 12.5492 152.35 12.2557 153.463 12.2557C154.576 12.2557 155.53 12.5516 156.325 13.1435C157.121 13.7306 157.729 14.5829 158.151 15.7003C158.577 16.813 158.79 18.1577 158.79 19.7344C158.79 21.3205 158.579 22.6747 158.158 23.7969C157.736 24.9143 157.128 25.7689 156.332 26.3608C155.537 26.9479 154.58 27.2415 153.463 27.2415ZM153.463 25.3452C154.448 25.3452 155.217 24.8646 155.771 23.9034C156.33 22.9422 156.609 21.5526 156.609 19.7344C156.609 18.527 156.482 17.5066 156.226 16.6733C155.975 15.8352 155.613 15.2008 155.139 14.7699C154.67 14.3343 154.112 14.1165 153.463 14.1165C152.483 14.1165 151.714 14.5994 151.155 15.5653C150.596 16.5312 150.314 17.9209 150.31 19.7344C150.31 20.9465 150.435 21.9716 150.686 22.8097C150.942 23.643 151.304 24.2751 151.773 24.706C152.241 25.1321 152.805 25.3452 153.463 25.3452ZM166.373 27.2415C165.251 27.2367 164.292 26.9408 163.497 26.3537C162.701 25.7666 162.093 24.9119 161.672 23.7898C161.25 22.6676 161.039 21.3158 161.039 19.7344C161.039 18.1577 161.25 16.8106 161.672 15.6932C162.098 14.5758 162.708 13.7235 163.504 13.1364C164.304 12.5492 165.261 12.2557 166.373 12.2557C167.486 12.2557 168.44 12.5516 169.235 13.1435C170.031 13.7306 170.639 14.5829 171.061 15.7003C171.487 16.813 171.7 18.1577 171.7 19.7344C171.7 21.3205 171.489 22.6747 171.068 23.7969C170.646 24.9143 170.038 25.7689 169.243 26.3608C168.447 26.9479 167.491 27.2415 166.373 27.2415ZM166.373 25.3452C167.358 25.3452 168.127 24.8646 168.681 23.9034C169.24 22.9422 169.52 21.5526 169.52 19.7344C169.52 18.527 169.392 17.5066 169.136 16.6733C168.885 15.8352 168.523 15.2008 168.049 14.7699C167.581 14.3343 167.022 14.1165 166.373 14.1165C165.393 14.1165 164.624 14.5994 164.065 15.5653C163.506 16.5312 163.225 17.9209 163.22 19.7344C163.22 20.9465 163.345 21.9716 163.596 22.8097C163.852 23.643 164.214 24.2751 164.683 24.706C165.152 25.1321 165.715 25.3452 166.373 25.3452ZM175.647 25.196C175.259 25.196 174.925 25.0587 174.646 24.7841C174.366 24.5047 174.227 24.1686 174.227 23.7756C174.227 23.3873 174.366 23.0559 174.646 22.7812C174.925 22.5019 175.259 22.3622 175.647 22.3622C176.035 22.3622 176.369 22.5019 176.648 22.7812C176.928 23.0559 177.067 23.3873 177.067 23.7756C177.067 24.036 177.001 24.2751 176.869 24.4929C176.741 24.706 176.57 24.8764 176.357 25.0043C176.144 25.1321 175.907 25.196 175.647 25.196ZM175.647 17.9091C175.259 17.9091 174.925 17.7718 174.646 17.4972C174.366 17.2178 174.227 16.8816 174.227 16.4886C174.227 16.1004 174.366 15.7689 174.646 15.4943C174.925 15.215 175.259 15.0753 175.647 15.0753C176.035 15.0753 176.369 15.215 176.648 15.4943C176.928 15.7689 177.067 16.1004 177.067 16.4886C177.067 16.7491 177.001 16.9882 176.869 17.206C176.741 17.419 176.57 17.5895 176.357 17.7173C176.144 17.8452 175.907 17.9091 175.647 17.9091ZM184.947 27.2415C183.825 27.2367 182.866 26.9408 182.071 26.3537C181.276 25.7666 180.667 24.9119 180.246 23.7898C179.824 22.6676 179.614 21.3158 179.614 19.7344C179.614 18.1577 179.824 16.8106 180.246 15.6932C180.672 14.5758 181.283 13.7235 182.078 13.1364C182.878 12.5492 183.835 12.2557 184.947 12.2557C186.06 12.2557 187.014 12.5516 187.81 13.1435C188.605 13.7306 189.214 14.5829 189.635 15.7003C190.061 16.813 190.274 18.1577 190.274 19.7344C190.274 21.3205 190.063 22.6747 189.642 23.7969C189.221 24.9143 188.612 25.7689 187.817 26.3608C187.021 26.9479 186.065 27.2415 184.947 27.2415ZM184.947 25.3452C185.932 25.3452 186.702 24.8646 187.256 23.9034C187.814 22.9422 188.094 21.5526 188.094 19.7344C188.094 18.527 187.966 17.5066 187.71 16.6733C187.459 15.8352 187.097 15.2008 186.624 14.7699C186.155 14.3343 185.596 14.1165 184.947 14.1165C183.967 14.1165 183.198 14.5994 182.639 15.5653C182.08 16.5312 181.799 17.9209 181.794 19.7344C181.794 20.9465 181.92 21.9716 182.17 22.8097C182.426 23.643 182.788 24.2751 183.257 24.706C183.726 25.1321 184.289 25.3452 184.947 25.3452ZM197.858 27.2415C196.735 27.2367 195.777 26.9408 194.981 26.3537C194.186 25.7666 193.577 24.9119 193.156 23.7898C192.734 22.6676 192.524 21.3158 192.524 19.7344C192.524 18.1577 192.734 16.8106 193.156 15.6932C193.582 14.5758 194.193 13.7235 194.988 13.1364C195.788 12.5492 196.745 12.2557 197.858 12.2557C198.97 12.2557 199.924 12.5516 200.72 13.1435C201.515 13.7306 202.124 14.5829 202.545 15.7003C202.971 16.813 203.184 18.1577 203.184 19.7344C203.184 21.3205 202.974 22.6747 202.552 23.7969C202.131 24.9143 201.522 25.7689 200.727 26.3608C199.931 26.9479 198.975 27.2415 197.858 27.2415ZM197.858 25.3452C198.842 25.3452 199.612 24.8646 200.166 23.9034C200.725 22.9422 201.004 21.5526 201.004 19.7344C201.004 18.527 200.876 17.5066 200.62 16.6733C200.369 15.8352 200.007 15.2008 199.534 14.7699C199.065 14.3343 198.506 14.1165 197.858 14.1165C196.877 14.1165 196.108 14.5994 195.549 15.5653C194.991 16.5312 194.709 17.9209 194.704 19.7344C194.704 20.9465 194.83 21.9716 195.081 22.8097C195.336 23.643 195.699 24.2751 196.167 24.706C196.636 25.1321 197.199 25.3452 197.858 25.3452Z" fill="black"/>
<defs>
<clipPath id="clip0_337_393">
<rect width="18" height="18" fill="white" transform="translate(122 11)"/>
</clipPath>
</defs>
</svg>
