<svg width="60" height="56" viewBox="0 0 60 56" fill="none" xmlns="http://www.w3.org/2000/svg">
<path d="M46.16 44.06C42.28 52.08 31.36 47.84 19.38 42.04C7.39998 36.24 7.99998 24.58 10.3 15.74C12.44 11.34 17.12 5.85999 24.58 6.71999C30.7 7.41999 38.6 10.52 42.68 16.46C54.66 22.26 50.06 36.02 46.18 44.04L46.16 44.06Z" fill="#F5D09E"/>
<path d="M36.26 33.8C34.7 37.04 29.78 34.68 25.5 32.62C21.22 30.54 20.36 25.68 21.92 22.44C23.48 19.2 30.2 20.02 34.48 22.08C38.76 24.16 37.82 30.56 36.24 33.8H36.26Z" fill="#FCEED8"/>
</svg>
