<svg width="21" height="16" viewBox="0 0 21 16" fill="none" xmlns="http://www.w3.org/2000/svg">
<path d="M10.1816 0C11.5414 0 12.7667 0.787692 13.6328 2.04883C14.2355 1.66772 14.9057 1.4541 15.6123 1.4541C18.2365 1.4541 20.3643 4.38505 20.3643 8C20.3643 10.9595 18.9375 13.459 16.9805 14.2686C15.2502 15.3417 12.8553 16 10.1816 16C7.50707 16 5.11131 15.3414 3.38086 14.2676C1.42514 13.4569 0 10.9583 0 8C0 4.38505 2.12776 1.4541 4.75195 1.4541C5.45826 1.45419 6.12796 1.66795 6.73047 2.04883C7.59653 0.787628 8.82191 0.000104848 10.1816 0Z" fill="#C9F3FF"/>
<path d="M10.1816 0C11.5414 0 12.7667 0.787692 13.6328 2.04883C14.2355 1.66772 14.9057 1.4541 15.6123 1.4541C18.2365 1.4541 20.3643 4.38505 20.3643 8C20.3643 10.9595 18.9375 13.459 16.9805 14.2686C15.2502 15.3417 12.8553 16 10.1816 16C7.50707 16 5.11131 15.3414 3.38086 14.2676C1.42514 13.4569 0 10.9583 0 8C0 4.38505 2.12776 1.4541 4.75195 1.4541C5.45826 1.45419 6.12796 1.66795 6.73047 2.04883C7.59653 0.787628 8.82191 0.000104848 10.1816 0Z" fill="#C9F3FF"/>
<path fill-rule="evenodd" clip-rule="evenodd" d="M10.5 7C11.1011 7.00007 11.6407 7.34955 12.0234 7.90723C12.2903 7.73799 12.5864 7.64163 12.8994 7.6416C14.0592 7.6416 15 8.93745 15 10.5352C14.9999 11.8431 14.3688 12.9469 13.5039 13.3047C12.7392 13.779 11.6816 14.0712 10.5 14.0713C9.31723 14.0713 8.25807 13.7788 7.49316 13.3037C6.62955 12.9449 6.00009 11.8418 6 10.5352C6 8.93764 6.93999 7.64192 8.09961 7.6416C8.41229 7.6416 8.70797 7.73841 8.97461 7.90723C9.35746 7.34906 9.89855 7 10.5 7Z" fill="#A1E9FF"/>
</svg>
