<svg width="60" height="56" viewBox="0 0 60 56" fill="none" xmlns="http://www.w3.org/2000/svg">
<path d="M37.34 11.08C41.78 13.22 44.06 17.66 42.46 21C42.32 21.28 42.16 21.56 41.98 21.8C43.44 21.84 44.98 22.22 46.48 22.94C50.92 25.08 53.2 29.52 51.6 32.86C50.58 34.96 48.26 36.1 45.58 36.14C47.22 38.26 47.76 40.8 46.74 42.9C45.12 46.22 40.22 47.18 35.78 45.04C34.96 44.64 34.22 44.16 33.56 43.64C31.36 45.64 27.42 45.96 23.8 44.2C19.88 42.3 17.64 38.62 18.28 35.5C16.8 35.46 15.22 35.1 13.7 34.36C9.26003 32.22 6.98003 27.78 8.58003 24.44C9.48003 22.6 11.38 21.48 13.64 21.22C11.32 18.76 10.52 15.32 11.92 12.42C13.8 8.54 18.92 7.14 23.36 9.28C24.88 10.02 26.1 11.06 27 12.28C29.02 9.74 33.36 9.16 37.34 11.1V11.08Z" fill="#FEFAC1"/>
<path d="M24.1199 23.08C25.3999 20.36 29.7199 22.38 33.4799 24.16C37.2399 25.94 38.0999 30.04 36.8199 32.74C35.5399 35.44 29.6999 34.72 25.9399 32.94C22.1799 31.16 22.8399 25.78 24.1199 23.08Z" fill="#FDF48A"/>
</svg>
