<svg width="46" height="44" viewBox="0 0 46 44" fill="none" xmlns="http://www.w3.org/2000/svg">
<path fill-rule="evenodd" clip-rule="evenodd" d="M27.22 11.42C35.34 11.34 39.06 11.36 40.62 15.82C41.98 19.72 39.48 24.26 34.88 26.78C37.08 32.98 34.14 37.72 29.9 39.18C25.78 40.62 20.96 37.76 18.54 32.68C12.66 34.62 8.50002 33.06 5.06002 28.18C3.68002 24.22 6.26002 19.64 10.96 17.12C8.98002 9.36 11.32 5.92 15.66 4.42C19.9 2.94 24.9 6.04 27.24 11.4L27.22 11.42Z" fill="#F7CAB7"/>
<path d="M27.72 24.08C27.82 26.5 24.68 26.64 21.94 26.74C19.2 26.86 17.42 24.24 17.32 21.82C17.22 19.4 20.86 17.78 23.6 17.68C26.34 17.56 27.62 21.66 27.72 24.08Z" fill="#F4A888"/>
</svg>
