<svg width="23" height="15" viewBox="0 0 23 15" fill="none" xmlns="http://www.w3.org/2000/svg">
<path d="M11.5 0C13.099 0 14.4522 0.98139 14.9062 2.33398C15.5034 1.91409 16.2465 1.66508 17.0518 1.66504C19.0228 1.66504 20.621 3.15656 20.6211 4.99609C20.6211 5.06692 20.617 5.1373 20.6123 5.20703C22.0028 5.71888 22.9999 7.1084 23 8.74316C23 10.8126 21.4026 12.4911 19.4316 12.4912C19.1507 12.4912 18.8775 12.4551 18.6152 12.3906C18.0148 13.4408 16.8303 14.1561 15.4658 14.1562C14.1203 14.1562 12.949 13.4609 12.3408 12.4346C11.9376 12.4711 11.5244 12.4912 11.1035 12.4912C10.9445 12.4912 10.7865 12.4868 10.6299 12.4814C10.0141 13.4818 8.85902 14.1562 7.53418 14.1562C6.2014 14.1562 5.03968 13.4742 4.42676 12.4639C4.27548 12.4804 4.1218 12.4912 3.96582 12.4912C1.77573 12.4912 0 10.8127 0 8.74316C0.000183952 6.91599 1.38434 5.39465 3.21582 5.06348C3.18724 4.90625 3.17189 4.74476 3.17188 4.58008C3.17188 2.97043 4.59266 1.66505 6.34473 1.66504C7.01479 1.66504 7.63533 1.85783 8.14746 2.18359C8.64827 0.909055 9.9608 7.71938e-05 11.5 0Z" fill="#BEEAAF"/>
<path d="M5.55155 5.53341C5.78456 4.52998 6.46574 4.24382 7.2964 4.32977" stroke="#98D483" stroke-width="0.7" stroke-linecap="round"/>
<path d="M10.3104 3.64363C10.9656 2.87323 11.6949 2.95714 12.3894 3.44325" stroke="#98D483" stroke-width="0.7" stroke-linecap="round"/>
<path d="M15.8622 4.64799C16.8227 4.42515 17.3677 4.94092 17.6605 5.76162" stroke="#98D483" stroke-width="0.7" stroke-linecap="round"/>
<path d="M19.2063 7.49376C19.9073 8.21833 19.792 8.97909 19.2957 9.68379" stroke="#98D483" stroke-width="0.7" stroke-linecap="round"/>
<path d="M3.77065 10.1523C3.31211 9.23858 3.64185 8.55043 4.31833 8.03706" stroke="#98D483" stroke-width="0.7" stroke-linecap="round"/>
<path d="M8.42872 10.9891C7.74746 11.7342 7.02151 11.6227 6.34418 11.1105" stroke="#98D483" stroke-width="0.7" stroke-linecap="round"/>
<path d="M16.3604 10.9891C15.6791 11.7342 14.9532 11.6227 14.2758 11.1105" stroke="#98D483" stroke-width="0.7" stroke-linecap="round"/>
<path d="M11.7724 9.85824C11.2948 10.3806 10.7858 10.3024 10.3109 9.94333" stroke="#98D483" stroke-width="0.7" stroke-linecap="round"/>
</svg>
