<svg width="19" height="17" viewBox="0 0 19 17" fill="none" xmlns="http://www.w3.org/2000/svg">
<path d="M9.44846 0C10.0863 3.54474e-07 10.6711 0.546768 11.1482 1.46832C11.7764 0.667444 12.4935 0.226865 13.2208 0.28776C13.9963 0.353003 14.657 0.980423 15.1492 1.98112C15.8456 1.01742 16.5976 0.502528 17.2799 0.632704C18.8401 0.93123 19.4506 4.49271 18.6442 8.58854C18.0771 11.4685 16.957 13.8425 15.8013 14.8971C14.3571 16.5229 12.0805 17 9.44846 17C7.33096 17 5.82805 16.608 4.03447 15.3269C1.55143 13.5534 1.06017 12.0717 0.355802 8.49447C-0.450569 4.39864 0.159896 0.837154 1.72008 0.538628C2.37377 0.413918 3.08763 0.883992 3.75899 1.77083C4.25952 0.665788 4.90528 3.03429e-08 5.61051 0C6.34968 4.10814e-07 7.01975 0.732977 7.52949 1.935C8.03922 0.732977 8.70929 3.18036e-08 9.44846 0Z" fill="#F4E5FF"/>
<path d="M10.2061 13.2281C10.1965 14.7846 9.76096 14.8739 9.38091 14.9437C9.00086 15.0135 8.77983 13.3245 8.78936 11.768C8.79888 10.2114 9.31667 9.16862 9.69671 9.09879C10.0768 9.02895 10.2156 11.6715 10.2061 13.2281Z" fill="#EDD3FF"/>
<path d="M11.7461 13.6144C11.4107 15.1441 11.8186 15.303 12.1762 15.4338C12.5338 15.5646 13.1249 13.9427 13.4602 12.4131C13.7956 10.8834 13.5182 9.77497 13.1606 9.64417C12.803 9.51337 12.0815 12.0848 11.7461 13.6144Z" fill="#EDD3FF"/>
<path d="M7.2539 13.6144C7.58926 15.1441 7.18142 15.303 6.8238 15.4338C6.46617 15.5646 5.87513 13.9427 5.53977 12.4131C5.2044 10.8834 5.48178 9.77497 5.8394 9.64417C6.19702 9.51337 6.91853 12.0848 7.2539 13.6144Z" fill="#EDD3FF"/>
</svg>
