<svg width="20" height="20" viewBox="0 0 20 20" fill="none" xmlns="http://www.w3.org/2000/svg">
<path fill-rule="evenodd" clip-rule="evenodd" d="M8.9587 2.6323C10.4374 0.45509 12.7743 -0.571583 14.4646 0.322728C16.1692 1.22475 16.6269 3.76901 15.6257 6.23581C18.4819 7.12447 20.3743 9.21507 19.9372 11.1255C19.4719 13.1593 16.5403 14.2281 13.3513 13.5483C13.4363 16.5203 12.0875 18.9735 10.1482 19.187C8.38417 19.3809 6.69325 17.6603 5.97823 15.1509C3.50156 15.9707 1.12833 15.5415 0.296591 13.9741C-0.651858 12.1867 0.748541 9.56858 3.44015 7.97898C1.21874 5.86391 0.445813 3.06476 1.73409 1.5405C3.10084 -0.0761867 6.26878 0.354662 8.80929 2.50241C8.85988 2.54519 8.90938 2.58883 8.9587 2.6323Z" fill="#E4E5FF"/>
<path d="M12.0991 7.98535C13.1181 9.08466 11.8023 10.3163 10.6489 11.3855C9.49543 12.4546 7.65893 11.8833 6.63998 10.784C5.62103 9.68465 6.55385 7.57438 7.70729 6.50527C8.86072 5.43615 11.0802 6.88604 12.0991 7.98535Z" fill="#B1B4FF"/>
</svg>
